<svg width="124" height="32" viewBox="0 0 124 32" fill="none" xmlns="http://www.w3.org/2000/svg">
<path d="M5.33962 28.25L6.82921 21.8104L1.83337 17.4791L8.43337 16.9062L11 10.8333L13.5667 16.9062L20.1667 17.4791L15.1709 21.8104L16.6605 28.25L11 24.8354L5.33962 28.25Z" fill="#FF8804"/>
<path d="M28.3104 27.75L30.0708 20.1396L24.1666 15.0209L31.9666 14.3438L35 7.16669L38.0333 14.3438L45.8333 15.0209L39.9291 20.1396L41.6895 27.75L35 23.7146L28.3104 27.75Z" fill="#FF8804"/>
<path d="M53.7666 28L55.9333 18.6334L48.6666 12.3334L58.2666 11.5L62 2.66669L65.7333 11.5L75.3333 12.3334L68.0666 18.6334L70.2333 28L62 23.0334L53.7666 28Z" fill="#FF8804"/>
<path d="M82.5531 28.625L84.3812 20.7219L78.25 15.4062L86.35 14.7031L89.5 7.25L92.65 14.7031L100.75 15.4062L94.6187 20.7219L96.4469 28.625L89.5 24.4344L82.5531 28.625Z" fill="#FF8804"/>
<path d="M107.34 28.25L108.829 21.8104L103.833 17.4791L110.433 16.9062L113 10.8333L115.567 16.9062L122.167 17.4791L117.171 21.8104L118.66 28.25L113 24.8354L107.34 28.25Z" fill="#FF8804"/>
</svg>
